<svg width="154" height="64" viewBox="0 0 154 64" fill="none" xmlns="http://www.w3.org/2000/svg">
<path d="M24.064 51.384C20.1387 51.384 16.5333 50.424 13.248 48.504C9.96267 46.584 7.36 43.9813 5.44 40.696C3.52 37.4107 2.56 33.8053 2.56 29.88C2.56 25.9547 3.52 22.3493 5.44 19.064C7.36 15.736 9.96267 13.112 13.248 11.192C16.576 9.22933 20.1813 8.248 24.064 8.248C27.2213 8.248 30.2293 8.90933 33.088 10.232C35.9467 11.512 38.3787 13.368 40.384 15.8L37.056 18.616C35.4347 16.7387 33.472 15.288 31.168 14.264C28.9067 13.1973 26.5387 12.664 24.064 12.664C20.992 12.664 18.1333 13.4533 15.488 15.032C12.8853 16.568 10.816 18.6587 9.28 21.304C7.744 23.9493 6.976 26.808 6.976 29.88C6.976 32.952 7.744 35.8107 9.28 38.456C10.816 41.0587 12.8853 43.128 15.488 44.664C18.1333 46.2 20.992 46.968 24.064 46.968C26.5387 46.968 28.9067 46.456 31.168 45.432C33.472 44.3653 35.4347 42.8933 37.056 41.016L40.384 43.832C38.3787 46.2213 35.9467 48.0773 33.088 49.4C30.2293 50.7227 27.2213 51.384 24.064 51.384ZM60.4395 51.32C57.5382 51.32 54.8288 50.5947 52.3115 49.144C49.8368 47.6933 47.8742 45.7307 46.4235 43.256C44.9728 40.7387 44.2475 38.0293 44.2475 35.128C44.2475 32.184 44.9728 29.4747 46.4235 27C47.8742 24.4827 49.8368 22.4987 52.3115 21.048C54.8288 19.5547 57.5382 18.808 60.4395 18.808C63.3835 18.808 66.0928 19.5547 68.5675 21.048C71.0848 22.4987 73.0688 24.4827 74.5195 27C76.0128 29.4747 76.7595 32.184 76.7595 35.128C76.7595 38.0293 76.0128 40.7387 74.5195 43.256C73.0688 45.7307 71.0848 47.6933 68.5675 49.144C66.0928 50.5947 63.3835 51.32 60.4395 51.32ZM60.4395 47.032C62.6155 47.032 64.5995 46.4987 66.3915 45.432C68.2262 44.3653 69.6768 42.9147 70.7435 41.08C71.8102 39.2453 72.3435 37.2613 72.3435 35.128C72.3435 32.952 71.8102 30.9467 70.7435 29.112C69.6768 27.2773 68.2262 25.8267 66.3915 24.76C64.5995 23.6933 62.6155 23.16 60.4395 23.16C58.3062 23.16 56.3222 23.6933 54.4875 24.76C52.6955 25.8267 51.2662 27.2773 50.1995 29.112C49.1328 30.9467 48.5995 32.952 48.5995 35.128C48.5995 37.2613 49.1328 39.2453 50.1995 41.08C51.2662 42.9147 52.6955 44.3653 54.4875 45.432C56.3222 46.4987 58.3062 47.032 60.4395 47.032ZM113.071 51H108.783V45.048C105.668 49.2293 101.679 51.32 96.8145 51.32C93.8705 51.32 91.1612 50.5947 88.6865 49.144C86.2118 47.6933 84.2492 45.7307 82.7985 43.256C81.3478 40.7387 80.6225 38.0293 80.6225 35.128C80.6225 32.2267 81.3478 29.5387 82.7985 27.064C84.2492 24.5467 86.2118 22.5627 88.6865 21.112C91.1612 19.6613 93.8705 18.936 96.8145 18.936C101.849 18.936 105.839 20.92 108.783 24.888V8.504H113.071V51ZM108.655 35.128C108.655 32.9947 108.121 31.032 107.055 29.24C105.988 27.448 104.537 26.0187 102.703 24.952C100.911 23.8853 98.9478 23.352 96.8145 23.352C94.6812 23.352 92.7185 23.8853 90.9265 24.952C89.1345 26.0187 87.7052 27.448 86.6385 29.24C85.5718 31.032 85.0385 32.9947 85.0385 35.128C85.0385 37.2613 85.5718 39.2453 86.6385 41.08C87.7052 42.872 89.1345 44.3013 90.9265 45.368C92.7185 46.4347 94.6812 46.968 96.8145 46.968C98.9478 46.968 100.911 46.4347 102.703 45.368C104.537 44.3013 105.988 42.872 107.055 41.08C108.121 39.2453 108.655 37.2613 108.655 35.128ZM123.418 37.368C123.93 40.0987 125.274 42.3813 127.45 44.216C129.626 46.008 132.122 46.904 134.938 46.904C137.029 46.904 138.949 46.4133 140.698 45.432C142.447 44.4507 143.855 43.1067 144.922 41.4L148.698 43.576C147.247 45.9227 145.306 47.8 142.874 49.208C140.442 50.616 137.797 51.32 134.938 51.32C132.037 51.32 129.349 50.5947 126.874 49.144C124.399 47.6933 122.437 45.7307 120.986 43.256C119.535 40.7813 118.81 38.0933 118.81 35.192C118.81 32.248 119.535 29.56 120.986 27.128C122.437 24.6533 124.399 22.6907 126.874 21.24C129.349 19.7893 132.037 19.064 134.938 19.064C137.839 19.064 140.527 19.7893 143.002 21.24C145.477 22.6907 147.439 24.6533 148.89 27.128C150.341 29.56 151.066 32.248 151.066 35.192C151.066 35.704 151.023 36.4293 150.938 37.368H123.418ZM134.938 23.416C133.061 23.416 131.226 23.864 129.434 24.76C127.642 25.6133 126.191 26.808 125.082 28.344C123.973 29.8373 123.418 31.4587 123.418 33.208H146.458C146.458 31.4587 145.903 29.8373 144.794 28.344C143.685 26.808 142.234 25.6133 140.442 24.76C138.693 23.864 136.858 23.416 134.938 23.416Z" fill="#1F2630"/>
</svg>
