<svg width="136" height="64" viewBox="0 0 136 64" fill="none" xmlns="http://www.w3.org/2000/svg">
<path d="M24.064 51.384C20.1387 51.384 16.5333 50.424 13.248 48.504C9.96267 46.584 7.36 43.9813 5.44 40.696C3.52 37.4107 2.56 33.8053 2.56 29.88C2.56 25.9547 3.52 22.3493 5.44 19.064C7.36 15.736 9.96267 13.112 13.248 11.192C16.576 9.22933 20.1813 8.248 24.064 8.248C27.2213 8.248 30.2293 8.90933 33.088 10.232C35.9467 11.512 38.3787 13.368 40.384 15.8L37.056 18.616C35.4347 16.7387 33.472 15.288 31.168 14.264C28.9067 13.1973 26.5387 12.664 24.064 12.664C20.992 12.664 18.1333 13.4533 15.488 15.032C12.8853 16.568 10.816 18.6587 9.28 21.304C7.744 23.9493 6.976 26.808 6.976 29.88C6.976 32.952 7.744 35.8107 9.28 38.456C10.816 41.0587 12.8853 43.128 15.488 44.664C18.1333 46.2 20.992 46.968 24.064 46.968C26.5387 46.968 28.9067 46.456 31.168 45.432C33.472 44.3653 35.4347 42.8933 37.056 41.016L40.384 43.832C38.3787 46.2213 35.9467 48.0773 33.088 49.4C30.2293 50.7227 27.2213 51.384 24.064 51.384ZM60.4395 51.32C57.5382 51.32 54.8288 50.5947 52.3115 49.144C49.8368 47.6933 47.8742 45.7307 46.4235 43.256C44.9728 40.7387 44.2475 38.0293 44.2475 35.128C44.2475 32.184 44.9728 29.4747 46.4235 27C47.8742 24.4827 49.8368 22.4987 52.3115 21.048C54.8288 19.5547 57.5382 18.808 60.4395 18.808C63.3835 18.808 66.0928 19.5547 68.5675 21.048C71.0848 22.4987 73.0688 24.4827 74.5195 27C76.0128 29.4747 76.7595 32.184 76.7595 35.128C76.7595 38.0293 76.0128 40.7387 74.5195 43.256C73.0688 45.7307 71.0848 47.6933 68.5675 49.144C66.0928 50.5947 63.3835 51.32 60.4395 51.32ZM60.4395 47.032C62.6155 47.032 64.5995 46.4987 66.3915 45.432C68.2262 44.3653 69.6768 42.9147 70.7435 41.08C71.8102 39.2453 72.3435 37.2613 72.3435 35.128C72.3435 32.952 71.8102 30.9467 70.7435 29.112C69.6768 27.2773 68.2262 25.8267 66.3915 24.76C64.5995 23.6933 62.6155 23.16 60.4395 23.16C58.3062 23.16 56.3222 23.6933 54.4875 24.76C52.6955 25.8267 51.2662 27.2773 50.1995 29.112C49.1328 30.9467 48.5995 32.952 48.5995 35.128C48.5995 37.2613 49.1328 39.2453 50.1995 41.08C51.2662 42.9147 52.6955 44.3653 54.4875 45.432C56.3222 46.4987 58.3062 47.032 60.4395 47.032ZM97.1685 23.736C96.1872 23.3093 95.2058 23.096 94.2245 23.096C92.2192 23.096 90.4912 23.8213 89.0405 25.272C87.5898 26.7227 86.8645 28.4507 86.8645 30.456V51H82.5125V30.456C82.5125 28.152 83.1098 26.0613 84.3045 24.184C85.5418 22.264 87.1418 20.8347 89.1045 19.896L89.2325 19.832C90.8112 19.1067 92.4752 18.744 94.2245 18.744C96.9552 18.744 99.3872 19.576 101.521 21.24L97.1685 23.736ZM105.481 37.368C105.993 40.0987 107.337 42.3813 109.513 44.216C111.689 46.008 114.185 46.904 117.001 46.904C119.091 46.904 121.011 46.4133 122.761 45.432C124.51 44.4507 125.918 43.1067 126.985 41.4L130.761 43.576C129.31 45.9227 127.369 47.8 124.937 49.208C122.505 50.616 119.859 51.32 117.001 51.32C114.099 51.32 111.411 50.5947 108.937 49.144C106.462 47.6933 104.499 45.7307 103.049 43.256C101.598 40.7813 100.873 38.0933 100.873 35.192C100.873 32.248 101.598 29.56 103.049 27.128C104.499 24.6533 106.462 22.6907 108.937 21.24C111.411 19.7893 114.099 19.064 117.001 19.064C119.902 19.064 122.59 19.7893 125.065 21.24C127.539 22.6907 129.502 24.6533 130.953 27.128C132.403 29.56 133.129 32.248 133.129 35.192C133.129 35.704 133.086 36.4293 133.001 37.368H105.481ZM117.001 23.416C115.123 23.416 113.289 23.864 111.497 24.76C109.705 25.6133 108.254 26.808 107.145 28.344C106.035 29.8373 105.481 31.4587 105.481 33.208H128.521C128.521 31.4587 127.966 29.8373 126.857 28.344C125.747 26.808 124.297 25.6133 122.505 24.76C120.755 23.864 118.921 23.416 117.001 23.416Z" fill="#1F2630"/>
</svg>
