<svg width="237" height="64" viewBox="0 0 237 64" fill="none" xmlns="http://www.w3.org/2000/svg">
<path d="M7.552 8.44V51H3.2V8.44H7.552ZM26.622 19C28.926 19 31.038 19.576 32.958 20.728C34.9207 21.8373 36.478 23.3733 37.63 25.336C38.782 27.256 39.358 29.368 39.358 31.672V51H34.942V31.672C34.942 30.1787 34.558 28.8133 33.79 27.576C33.0647 26.296 32.062 25.2933 30.782 24.568C29.502 23.8 28.1153 23.416 26.622 23.416C25.1287 23.416 23.742 23.8 22.462 24.568C21.182 25.2933 20.158 26.296 19.39 27.576C18.6647 28.8133 18.302 30.1787 18.302 31.672V51H13.95V19.832H18.302V22.648C19.3687 21.4533 20.606 20.5573 22.014 19.96C23.4647 19.32 25.0007 19 26.622 19ZM48.9775 42.424C49.3188 43.6187 49.8522 44.5573 50.5775 45.24C51.7722 46.3493 53.5215 46.904 55.8255 46.904C57.8308 46.904 59.4522 46.4347 60.6895 45.496C61.9268 44.5573 62.5455 43.3413 62.5455 41.848C62.5455 40.44 62.2682 39.3947 61.7135 38.712C61.1588 38.0293 60.4335 37.6027 59.5375 37.432C58.6842 37.2187 57.4895 37.0907 55.9535 37.048C53.7348 36.92 51.9215 36.6853 50.5135 36.344C49.1055 35.96 47.8255 35.128 46.6735 33.848C45.2655 32.0987 44.5615 30.1787 44.5615 28.088C44.5615 27.576 44.5828 27.192 44.6255 26.936C44.9668 24.248 46.0975 22.2 48.0175 20.792C49.9375 19.3413 52.5188 18.616 55.7615 18.616H55.8255C58.2148 18.616 60.1562 19.064 61.6495 19.96C63.1428 20.856 64.2948 21.944 65.1055 23.224C65.9588 24.632 66.4922 26.104 66.7055 27.64H62.2255C62.1402 27.0427 61.8628 26.3387 61.3935 25.528C60.3268 23.9067 58.4708 23.0533 55.8255 22.968C53.1375 22.968 51.3668 23.416 50.5135 24.312C49.6602 25.208 49.1482 26.2533 48.9775 27.448C48.9348 27.6187 48.9135 27.8533 48.9135 28.152C48.9135 29.176 49.2762 30.0933 50.0015 30.904C50.5988 31.6293 51.3668 32.12 52.3055 32.376C53.2442 32.5893 54.5882 32.76 56.3375 32.888C57.7455 32.9733 58.9402 33.1013 59.9215 33.272C60.9455 33.4427 61.9055 33.7627 62.8015 34.232C65.5748 35.7253 66.9615 38.264 66.9615 41.848C66.9615 43.0853 66.7055 44.28 66.1935 45.432C65.7242 46.5413 65.0415 47.5227 64.1455 48.376C62.1402 50.3387 59.3882 51.32 55.8895 51.32C52.4762 51.32 49.7028 50.36 47.5695 48.44C45.9055 46.8187 44.8815 44.8133 44.4975 42.424H48.9775ZM87.002 51.32C84.1007 51.32 81.3913 50.5947 78.874 49.144C76.3993 47.6933 74.4367 45.7307 72.986 43.256C71.5353 40.7387 70.81 38.0293 70.81 35.128C70.81 32.184 71.5353 29.4747 72.986 27C74.4367 24.4827 76.3993 22.4987 78.874 21.048C81.3913 19.5547 84.1007 18.808 87.002 18.808C89.946 18.808 92.6553 19.5547 95.13 21.048C97.6473 22.4987 99.6313 24.4827 101.082 27C102.575 29.4747 103.322 32.184 103.322 35.128C103.322 38.0293 102.575 40.7387 101.082 43.256C99.6313 45.7307 97.6473 47.6933 95.13 49.144C92.6553 50.5947 89.946 51.32 87.002 51.32ZM87.002 47.032C89.178 47.032 91.162 46.4987 92.954 45.432C94.7887 44.3653 96.2393 42.9147 97.306 41.08C98.3727 39.2453 98.906 37.2613 98.906 35.128C98.906 32.952 98.3727 30.9467 97.306 29.112C96.2393 27.2773 94.7887 25.8267 92.954 24.76C91.162 23.6933 89.178 23.16 87.002 23.16C84.8687 23.16 82.8847 23.6933 81.05 24.76C79.258 25.8267 77.8287 27.2773 76.762 29.112C75.6953 30.9467 75.162 32.952 75.162 35.128C75.162 37.2613 75.6953 39.2453 76.762 41.08C77.8287 42.9147 79.258 44.3653 81.05 45.432C82.8847 46.4987 84.8687 47.032 87.002 47.032ZM139.923 19C142.056 19 144.019 19.5333 145.811 20.6C147.603 21.624 149.011 23.0533 150.035 24.888C151.102 26.68 151.635 28.6427 151.635 30.776V51H147.283V30.776C147.283 28.728 146.558 27 145.107 25.592C143.656 24.1413 141.928 23.416 139.923 23.416C137.875 23.416 136.126 24.1413 134.675 25.592C133.267 27 132.563 28.7067 132.563 30.712V30.776V51H128.147V30.712C128.147 28.7067 127.422 27 125.971 25.592C124.52 24.1413 122.792 23.416 120.787 23.416C118.782 23.416 117.054 24.1627 115.603 25.656C114.152 27.1067 113.427 28.856 113.427 30.904V51H109.075V19.832H113.427V22.328C114.28 21.304 115.368 20.4933 116.691 19.896C118.056 19.2987 119.422 19 120.787 19C122.707 19 124.499 19.448 126.163 20.344C127.87 21.24 129.256 22.4347 130.323 23.928C131.432 22.4347 132.819 21.24 134.483 20.344C136.19 19.448 138.003 19 139.923 19ZM170.685 19C172.989 19 175.101 19.576 177.021 20.728C178.983 21.8373 180.541 23.3733 181.693 25.336C182.845 27.256 183.421 29.368 183.421 31.672V51H179.005V31.672C179.005 30.1787 178.621 28.8133 177.853 27.576C177.127 26.296 176.125 25.2933 174.845 24.568C173.565 23.8 172.178 23.416 170.685 23.416C169.191 23.416 167.805 23.8 166.525 24.568C165.245 25.2933 164.221 26.296 163.453 27.576C162.727 28.8133 162.365 30.1787 162.365 31.672V51H158.013V19.832H162.365V22.648C163.431 21.4533 164.669 20.5573 166.077 19.96C167.527 19.32 169.063 19 170.685 19ZM192.08 10.104C192.848 10.104 193.509 10.3813 194.064 10.936C194.619 11.4907 194.896 12.152 194.896 12.92C194.896 13.7307 194.619 14.4133 194.064 14.968C193.509 15.5227 192.848 15.8 192.08 15.8C191.269 15.8 190.587 15.5227 190.032 14.968C189.477 14.4133 189.2 13.7307 189.2 12.92C189.2 12.152 189.477 11.4907 190.032 10.936C190.587 10.3813 191.269 10.104 192.08 10.104ZM194.256 19V51H189.84V19H194.256ZM233.005 19.832V51H228.589V45.112C225.645 49.2507 221.72 51.32 216.813 51.32C213.869 51.32 211.16 50.616 208.685 49.208C206.21 47.7573 204.248 45.7947 202.797 43.32C201.389 40.8453 200.685 38.1573 200.685 35.256C200.685 32.312 201.389 29.6027 202.797 27.128C204.248 24.6533 206.21 22.712 208.685 21.304C211.16 19.8533 213.869 19.128 216.813 19.128C219.842 19.128 222.317 19.768 224.237 21.048C226.2 22.2853 227.65 23.6293 228.589 25.08V19.832H233.005ZM216.813 46.968C218.946 46.968 220.909 46.456 222.701 45.432C224.493 44.3653 225.901 42.936 226.925 41.144C227.992 39.352 228.525 37.3893 228.525 35.256C228.525 33.1227 227.992 31.16 226.925 29.368C225.901 27.5333 224.493 26.104 222.701 25.08C220.909 24.0133 218.946 23.48 216.813 23.48C214.68 23.48 212.696 24.0133 210.861 25.08C209.069 26.104 207.64 27.5333 206.573 29.368C205.549 31.16 205.037 33.1227 205.037 35.256C205.037 37.3893 205.549 39.352 206.573 41.144C207.64 42.936 209.069 44.3653 210.861 45.432C212.696 46.456 214.68 46.968 216.813 46.968Z" fill="#1F2630"/>
</svg>
