<svg width="275" height="64" viewBox="0 0 275 64" fill="none" xmlns="http://www.w3.org/2000/svg">
<path d="M18.048 51.448C15.36 51.448 12.8853 50.7867 10.624 49.464C8.36267 48.0987 6.54933 46.2853 5.184 44.024C3.86133 41.7627 3.2 39.288 3.2 36.6V8.44H7.488V36.6C7.488 38.52 7.95733 40.2907 8.896 41.912C9.83467 43.4907 11.1147 44.7493 12.736 45.688C14.3573 46.584 16.128 47.032 18.048 47.032C19.968 47.032 21.7387 46.584 23.36 45.688C25.024 44.7493 26.3253 43.4907 27.264 41.912C28.2027 40.2907 28.672 38.52 28.672 36.6V8.44H32.896V36.6C32.896 39.288 32.2133 41.7627 30.848 44.024C29.5253 46.2853 27.7333 48.0987 25.472 49.464C23.2107 50.7867 20.736 51.448 18.048 51.448ZM43.677 8.44V51H39.325V8.44H43.677ZM81.755 19.832V51H77.339V45.112C74.395 49.2507 70.4697 51.32 65.563 51.32C62.619 51.32 59.9097 50.616 57.435 49.208C54.9603 47.7573 52.9977 45.7947 51.547 43.32C50.139 40.8453 49.435 38.1573 49.435 35.256C49.435 32.312 50.139 29.6027 51.547 27.128C52.9977 24.6533 54.9603 22.712 57.435 21.304C59.9097 19.8533 62.619 19.128 65.563 19.128C68.5923 19.128 71.067 19.768 72.987 21.048C74.9497 22.2853 76.4003 23.6293 77.339 25.08V19.832H81.755ZM65.563 46.968C67.6963 46.968 69.659 46.456 71.451 45.432C73.243 44.3653 74.651 42.936 75.675 41.144C76.7417 39.352 77.275 37.3893 77.275 35.256C77.275 33.1227 76.7417 31.16 75.675 29.368C74.651 27.5333 73.243 26.104 71.451 25.08C69.659 24.0133 67.6963 23.48 65.563 23.48C63.4297 23.48 61.4457 24.0133 59.611 25.08C57.819 26.104 56.3897 27.5333 55.323 29.368C54.299 31.16 53.787 33.1227 53.787 35.256C53.787 37.3893 54.299 39.352 55.323 41.144C56.3897 42.936 57.819 44.3653 59.611 45.432C61.4457 46.456 63.4297 46.968 65.563 46.968ZM100.234 51.256C97.9295 51.256 95.7962 50.7013 93.8335 49.592C91.9135 48.44 90.3775 46.904 89.2255 44.984C88.0735 43.0213 87.4975 40.888 87.4975 38.584V19H91.9135V38.584C91.9135 40.0773 92.2762 41.464 93.0015 42.744C93.7695 44.024 94.7935 45.048 96.0735 45.816C97.3535 46.5413 98.7402 46.904 100.234 46.904C101.727 46.904 103.114 46.5413 104.394 45.816C105.674 45.048 106.676 44.024 107.402 42.744C108.17 41.464 108.554 40.0773 108.554 38.584V19H112.906V50.68H108.554V47.608C107.487 48.8027 106.228 49.72 104.778 50.36C103.37 50.9573 101.855 51.256 100.234 51.256ZM131.997 19C134.301 19 136.413 19.576 138.333 20.728C140.296 21.8373 141.853 23.3733 143.005 25.336C144.157 27.256 144.733 29.368 144.733 31.672V51H140.317V31.672C140.317 30.1787 139.933 28.8133 139.165 27.576C138.44 26.296 137.437 25.2933 136.157 24.568C134.877 23.8 133.49 23.416 131.997 23.416C130.504 23.416 129.117 23.8 127.837 24.568C126.557 25.2933 125.533 26.296 124.765 27.576C124.04 28.8133 123.677 30.1787 123.677 31.672V51H119.325V19.832H123.677V22.648C124.744 21.4533 125.981 20.5573 127.389 19.96C128.84 19.32 130.376 19 131.997 19ZM178.289 45.624C176.753 47.416 174.918 48.824 172.785 49.848C170.694 50.8293 168.433 51.32 166.001 51.32C163.099 51.32 160.411 50.5947 157.937 49.144C155.462 47.6933 153.499 45.7307 152.049 43.256C150.598 40.7813 149.873 38.0933 149.873 35.192C149.873 32.2907 150.598 29.6027 152.049 27.128C153.499 24.6533 155.462 22.6907 157.937 21.24C160.411 19.7893 163.099 19.064 166.001 19.064C168.433 19.064 170.694 19.576 172.785 20.6C174.918 21.5813 176.753 22.968 178.289 24.76L174.385 27C173.318 25.8907 172.059 25.0373 170.609 24.44C169.158 23.8 167.622 23.48 166.001 23.48C163.867 23.48 161.905 24.0133 160.113 25.08C158.321 26.104 156.891 27.512 155.825 29.304C154.758 31.096 154.225 33.0587 154.225 35.192C154.225 37.3253 154.758 39.288 155.825 41.08C156.891 42.872 158.321 44.3013 160.113 45.368C161.905 46.392 163.867 46.904 166.001 46.904C167.622 46.904 169.158 46.6053 170.609 46.008C172.059 45.368 173.318 44.4933 174.385 43.384L178.289 45.624ZM196.811 18.744C199.115 18.744 201.227 19.32 203.147 20.472C205.11 21.5813 206.646 23.1173 207.755 25.08C208.907 27 209.483 29.112 209.483 31.416V51H205.067V31.416C205.067 29.9227 204.683 28.536 203.915 27.256C203.19 25.976 202.187 24.9733 200.907 24.248C199.67 23.48 198.304 23.096 196.811 23.096C195.318 23.096 193.931 23.48 192.651 24.248C191.371 24.9733 190.347 25.976 189.579 27.256C188.854 28.536 188.491 29.9227 188.491 31.416V51H184.075V8.312H188.491V22.328C189.515 21.1333 190.731 20.2373 192.139 19.64C193.59 19.0427 195.147 18.744 196.811 18.744ZM219.856 37.368C220.368 40.0987 221.712 42.3813 223.888 44.216C226.064 46.008 228.56 46.904 231.376 46.904C233.466 46.904 235.386 46.4133 237.136 45.432C238.885 44.4507 240.293 43.1067 241.36 41.4L245.136 43.576C243.685 45.9227 241.744 47.8 239.312 49.208C236.88 50.616 234.234 51.32 231.376 51.32C228.474 51.32 225.786 50.5947 223.312 49.144C220.837 47.6933 218.874 45.7307 217.424 43.256C215.973 40.7813 215.248 38.0933 215.248 35.192C215.248 32.248 215.973 29.56 217.424 27.128C218.874 24.6533 220.837 22.6907 223.312 21.24C225.786 19.7893 228.474 19.064 231.376 19.064C234.277 19.064 236.965 19.7893 239.44 21.24C241.914 22.6907 243.877 24.6533 245.328 27.128C246.778 29.56 247.504 32.248 247.504 35.192C247.504 35.704 247.461 36.4293 247.376 37.368H219.856ZM231.376 23.416C229.498 23.416 227.664 23.864 225.872 24.76C224.08 25.6133 222.629 26.808 221.52 28.344C220.41 29.8373 219.856 31.4587 219.856 33.208H242.896C242.896 31.4587 242.341 29.8373 241.232 28.344C240.122 26.808 238.672 25.6133 236.88 24.76C235.13 23.864 233.296 23.416 231.376 23.416ZM267.919 23.736C266.937 23.3093 265.956 23.096 264.975 23.096C262.969 23.096 261.241 23.8213 259.791 25.272C258.34 26.7227 257.615 28.4507 257.615 30.456V51H253.263V30.456C253.263 28.152 253.86 26.0613 255.055 24.184C256.292 22.264 257.892 20.8347 259.855 19.896L259.983 19.832C261.561 19.1067 263.225 18.744 264.975 18.744C267.705 18.744 270.137 19.576 272.271 21.24L267.919 23.736Z" fill="#1F2630"/>
</svg>
